<svg width="22" height="20" viewBox="0 0 22 20" fill="none" xmlns="http://www.w3.org/2000/svg">
<path d="M3.5 6.5H4.25C4.25 6.08579 3.91421 5.75 3.5 5.75V6.5ZM4.5 3.5V4.25C4.75076 4.25 4.98494 4.12467 5.12404 3.91603L4.5 3.5ZM4.76816 3.09775L4.14413 2.68173V2.68173L4.76816 3.09775ZM6.84509 4.48237L7.46912 4.8984V4.8984L6.84509 4.48237ZM6.5 5L5.87596 4.58397C5.82828 4.6555 5.79324 4.7347 5.77239 4.8181L6.5 5ZM7.5 7.5L7.26283 8.21151C7.28104 8.21758 7.29948 8.22295 7.3181 8.22761L7.5 7.5ZM8 12L8.73214 11.8373L8.60163 11.25H8V12ZM10 5.5L9.28849 5.26283C9.27865 5.29233 9.27066 5.32242 9.26456 5.35291L10 5.5ZM16.5 12.7285L17.2435 12.6299L17.1268 11.7501L16.2788 12.0119L16.5 12.7285ZM16 18.5L15.3292 18.1646C15.2129 18.3971 15.2254 18.6732 15.362 18.8943C15.4987 19.1154 15.7401 19.25 16 19.25V18.5ZM19 18.5V19.25C19.4142 19.25 19.75 18.9142 19.75 18.5H19ZM11 12.2208L11.3836 11.5763H11.3836L11 12.2208ZM11 18.5V19.25C11.4142 19.25 11.75 18.9142 11.75 18.5H11ZM7.5 18.5L6.9 18.05C6.72955 18.2773 6.70214 18.5813 6.82918 18.8354C6.95622 19.0895 7.21592 19.25 7.5 19.25V18.5ZM17.3308 5.4526L17.8251 4.88846L17.8251 4.88846L17.3308 5.4526ZM9 16.5L9.6 16.95C9.73137 16.7748 9.77964 16.551 9.73214 16.3373L9 16.5ZM17 16.5L17.6708 16.8354C17.7379 16.7013 17.7632 16.5501 17.7435 16.4014L17 16.5ZM6.55547 2.7916L6.10547 3.3916L6.55547 2.7916ZM3.5 5.75H2V7.25H3.5V5.75ZM3 4.25H4.5V2.75H3V4.25ZM5.12404 3.91603L5.3922 3.51378L4.14413 2.68173L3.87596 3.08397L5.12404 3.91603ZM6.22105 4.06635L5.87596 4.58397L7.12404 5.41603L7.46912 4.8984L6.22105 4.06635ZM5.77239 4.8181C5.66777 5.2366 5.60199 5.88941 5.75917 6.529C5.92311 7.19607 6.35359 7.90843 7.26283 8.21151L7.73717 6.78849C7.44641 6.69157 7.29355 6.48727 7.21583 6.171C7.13135 5.82726 7.16557 5.43007 7.22761 5.1819L5.77239 4.8181ZM2.75 6.5C2.75 7.65273 3.17145 9.17176 4.00096 10.416C4.83809 11.6717 6.16814 12.75 8 12.75V11.25C6.83186 11.25 5.91191 10.5783 5.24904 9.58397C4.57855 8.57824 4.25 7.34727 4.25 6.5H2.75ZM7.3181 8.22761C7.80311 8.34886 8.52757 8.34637 9.21187 7.96943C9.92782 7.57505 10.4995 6.82683 10.7354 5.64709L9.26456 5.35291C9.10051 6.17317 8.75552 6.50829 8.48813 6.65557C8.1891 6.8203 7.86355 6.81781 7.6819 6.77239L7.3181 8.22761ZM16 19.25H19V17.75H16V19.25ZM11.3836 11.5763C11.1048 11.4104 10.9319 11.2464 10.836 11.1216C10.731 10.9848 10.75 10.9398 10.75 11H9.25C9.25 11.3858 9.42406 11.7458 9.6465 12.0354C9.87813 12.3369 10.2052 12.6205 10.6164 12.8653L11.3836 11.5763ZM10.25 12.2208V18.5H11.75V12.2208H10.25ZM11 17.75H7.5V19.25H11V17.75ZM18.25 8.47819V18.5H19.75V8.47819H18.25ZM10.7115 5.73717C10.9579 4.9979 11.3059 4.08406 11.8041 3.36441C12.3046 2.64157 12.8571 2.25 13.5 2.25V0.75C12.1429 0.75 11.1954 1.60843 10.5709 2.51059C9.94408 3.41594 9.54206 4.5021 9.28849 5.26283L10.7115 5.73717ZM13.5 2.25C13.8691 2.25 14.1503 2.46438 14.6822 3.26546C15.1638 3.99063 15.7878 5.09789 16.8366 6.01674L17.8251 4.88846C16.9692 4.13869 16.4856 3.26965 15.9318 2.43568C15.4284 1.67761 14.7465 0.75 13.5 0.75V2.25ZM8.1 18.95L9.6 16.95L8.4 16.05L6.9 18.05L8.1 18.95ZM9.73214 16.3373L8.73214 11.8373L7.26786 12.1627L8.26786 16.6627L9.73214 16.3373ZM15.7565 12.8271L16.2565 16.5986L17.7435 16.4014L17.2435 12.6299L15.7565 12.8271ZM16.3292 16.1646L15.3292 18.1646L16.6708 18.8354L17.6708 16.8354L16.3292 16.1646ZM19.75 8.47819C19.75 6.95229 18.7839 5.72844 17.8251 4.88846L16.8366 6.01674C17.6832 6.75836 18.25 7.60392 18.25 8.47819H19.75ZM6.10547 3.3916C6.31695 3.55021 6.36768 3.8464 6.22105 4.06635L7.46912 4.8984C8.05735 4.01605 7.85383 2.82787 7.00547 2.1916L6.10547 3.3916ZM5.3922 3.51378C5.55081 3.27587 5.87672 3.22004 6.10547 3.3916L7.00547 2.1916C6.08782 1.50336 4.7804 1.72731 4.14413 2.68173L5.3922 3.51378ZM1.75 5.5C1.75 4.80964 2.30964 4.25 3 4.25V2.75C1.48122 2.75 0.25 3.98122 0.25 5.5H1.75ZM2 5.75C1.86193 5.75 1.75 5.63807 1.75 5.5H0.25C0.25 6.4665 1.0335 7.25 2 7.25V5.75ZM18.2986 6.5C18.1621 7.23747 18.1617 7.23739 18.1612 7.23731C18.1611 7.23729 18.1607 7.23721 18.1604 7.23716C18.1599 7.23706 18.1594 7.23697 18.159 7.23688C18.1581 7.23671 18.1573 7.23657 18.1568 7.23646C18.1556 7.23623 18.155 7.23611 18.155 7.23612C18.1551 7.23613 18.1575 7.23662 18.162 7.23766C18.1712 7.23974 18.1889 7.24401 18.2141 7.25098C18.2645 7.26499 18.3435 7.2896 18.4415 7.32892C18.6389 7.40806 18.9044 7.54318 19.1693 7.7638C19.6745 8.18455 20.25 8.97384 20.25 10.5H21.75C21.75 8.52623 20.9748 7.3155 20.1293 6.61123C19.7188 6.26935 19.3091 6.06071 18.9999 5.93671C18.8447 5.87447 18.7126 5.83268 18.6153 5.80566C18.5666 5.79213 18.5263 5.78223 18.4959 5.77528C18.4807 5.77181 18.4679 5.76906 18.4577 5.76697C18.4526 5.76592 18.4482 5.76503 18.4444 5.76429C18.4425 5.76393 18.4408 5.7636 18.4393 5.7633C18.4385 5.76315 18.4378 5.76302 18.4371 5.76289C18.4367 5.76282 18.4362 5.76273 18.4361 5.7627C18.4356 5.76261 18.4351 5.76253 18.2986 6.5ZM16.2788 12.0119C14.7331 12.489 12.7095 12.3653 11.3836 11.5763L10.6164 12.8653C12.3759 13.9124 14.8537 14.0217 16.7212 13.4451L16.2788 12.0119Z" fill="#141B34"/>
</svg>
