<svg width="22" height="19" viewBox="0 0 22 19" fill="none" xmlns="http://www.w3.org/2000/svg">
<path d="M21 15H1" stroke="#141B34" stroke-width="1.5" stroke-linejoin="round"/>
<path d="M21 19V10H1V19" stroke="#141B34" stroke-width="1.5" stroke-linejoin="round"/>
<path d="M14 10V7H8V10" stroke="#141B34" stroke-width="1.5" stroke-linejoin="round"/>
<path d="M6 4V4.75H6.43668L6.65225 4.37024L6 4ZM16 4L15.3478 4.37024L15.5633 4.75H16V4ZM19 4H19.75C19.75 3.58579 19.4142 3.25 19 3.25V4ZM3 4V3.25C2.58579 3.25 2.25 3.58579 2.25 4H3ZM6.65225 4.37024C7.54397 2.79928 9.38535 1.75 11 1.75V0.25C8.827 0.25 6.49669 1.60568 5.34775 3.62976L6.65225 4.37024ZM11 1.75C12.6147 1.75 14.456 2.79928 15.3478 4.37024L16.6522 3.62976C15.5033 1.60568 13.173 0.25 11 0.25V1.75ZM16 4.75H19V3.25H16V4.75ZM18.25 4V10H19.75V4H18.25ZM6 3.25H3V4.75H6V3.25ZM2.25 4V10H3.75V4H2.25Z" fill="#141B34"/>
</svg>
