<svg width="22" height="22" viewBox="0 0 22 22" fill="none" xmlns="http://www.w3.org/2000/svg">
<path d="M1 21L0.256579 20.9009C0.228006 21.1152 0.293299 21.3314 0.435712 21.494C0.578125 21.6567 0.783805 21.75 1 21.75L1 21ZM21 21V21.75C21.2162 21.75 21.4219 21.6567 21.5643 21.494C21.7067 21.3314 21.772 21.1152 21.7434 20.9009L21 21ZM19 6L19.7434 5.90088L19.6566 5.25H19V6ZM3 6V5.25H2.34336L2.25658 5.90088L3 6ZM1 21.75H21V20.25H1V21.75ZM21.7434 20.9009L19.7434 5.90088L18.2566 6.09912L20.2566 21.0991L21.7434 20.9009ZM19 5.25H3V6.75H19V5.25ZM2.25658 5.90088L0.256579 20.9009L1.74342 21.0991L3.74342 6.09912L2.25658 5.90088Z" fill="#141B34"/>
<path d="M6.5 8.5L6.71501 4.98983C6.87559 2.74176 8.7462 1 11 1C13.2538 1 15.1244 2.74176 15.285 4.98983L15.5 8.5" stroke="#141B34" stroke-width="1.5"/>
</svg>
