<svg width="20" height="22" viewBox="0 0 20 22" fill="none" xmlns="http://www.w3.org/2000/svg">
<path d="M1 1V0.25C0.585786 0.25 0.25 0.585786 0.25 1L1 1ZM13 1H13.75C13.75 0.585786 13.4142 0.25 13 0.25V1ZM13 21V21.75C13.4142 21.75 13.75 21.4142 13.75 21H13ZM1 21H0.25V21.75H1V21ZM1 1.75H13V0.25H1V1.75ZM12.25 1V21H13.75V1H12.25ZM1.75 21V1H0.25V21H1.75ZM13 20.25H1V21.75H13V20.25Z" fill="#141B34"/>
<path d="M19 7H19.75C19.75 6.80109 19.671 6.61032 19.5303 6.46967C19.3897 6.32902 19.1989 6.25 19 6.25L19 7ZM19 21V21.75H19.75V21H19ZM13 7.75L19 7.75L19 6.25L13 6.25L13 7.75ZM18.25 7V21H19.75V7H18.25ZM19 20.25H13V21.75H19V20.25Z" fill="#141B34"/>
<path d="M5 5L9 5M5 8L9 8M5 11L9 11" stroke="#141B34" stroke-width="1.5" stroke-linejoin="round"/>
<path d="M9.5 21V15H4.5V21" stroke="#141B34" stroke-width="1.5" stroke-linejoin="round"/>
</svg>
