<svg width="21" height="21" viewBox="0 0 21 21" fill="none" xmlns="http://www.w3.org/2000/svg">
<path d="M6.76872 6.49708C8.10954 5.67461 9.27981 6.00606 9.98282 6.53401C10.2711 6.75048 10.4152 6.85871 10.5 6.85871C10.5848 6.85871 10.7289 6.75048 11.0172 6.53401C11.7202 6.00606 12.8905 5.67461 14.2313 6.49708C15.991 7.57647 16.3891 11.1374 12.3302 14.1417C11.5571 14.7139 11.1706 15 10.5 15C9.82941 15 9.44286 14.7139 8.66976 14.1417C4.61086 11.1374 5.00903 7.57647 6.76872 6.49708Z" stroke="#FF0000" stroke-width="1.5" stroke-linecap="round"/>
<path d="M1 10.5C1 6.02166 1 3.78249 2.39124 2.39124C3.78249 1 6.02166 1 10.5 1C14.9783 1 17.2175 1 18.6088 2.39124C20 3.78249 20 6.02166 20 10.5C20 14.9783 20 17.2175 18.6088 18.6088C17.2175 20 14.9783 20 10.5 20C6.02166 20 3.78249 20 2.39124 18.6088C1 17.2175 1 14.9783 1 10.5Z" stroke="#FF0000" stroke-width="1.5" stroke-linejoin="round"/>
</svg>
